<svg xmlns="http://www.w3.org/2000/svg" width="400" height="375" viewBox="0 0 400 375" version="1.1">
	<path d="M 62.603 56.300 C 60.107 58.127, 60.015 57.818, 72.395 89.171 C 78.114 103.652, 84.460 119.775, 86.498 125 C 88.536 130.225, 96.837 151.375, 104.944 172 C 113.051 192.625, 122.748 217.375, 126.494 227 C 145.193 275.050, 156.375 302.670, 157.767 304.250 C 159.180 305.853, 162.176 305.999, 193.405 305.985 C 212.157 305.976, 228.072 305.606, 228.771 305.163 C 229.470 304.719, 235.012 291.339, 241.087 275.428 C 247.163 259.518, 257.336 233, 263.695 216.500 C 270.054 200, 278.982 176.825, 283.534 165 C 288.087 153.175, 299.054 124.853, 307.906 102.062 C 324.186 60.143, 325.263 56.698, 322.418 55.607 C 321.548 55.273, 306.248 55, 288.418 55 C 250.510 55, 254.051 53.824, 249.102 68.057 C 247.296 73.251, 241.314 90.325, 235.809 106 C 225.034 136.679, 222.778 143.192, 206.557 190.450 C 200.714 207.473, 195.806 221.527, 195.650 221.683 C 195.494 221.839, 190.035 206.561, 183.519 187.733 C 155.098 105.615, 138.120 57.720, 137.052 56.651 C 135.201 54.798, 65.105 54.468, 62.603 56.300" stroke="none" fill="#b7e7c0" fill-rule="evenodd"/>
</svg>